<svg width="291" height="207" viewBox="0 0 291 207" fill="none" xmlns="http://www.w3.org/2000/svg">
<path d="M256.981 179.806C256.953 179.88 256.897 179.94 256.824 179.973C256.752 180.006 256.669 180.009 256.594 179.981L17.1955 91.5788C17.1208 91.5511 17.0603 91.495 17.0272 91.423C16.9941 91.351 16.9911 91.2689 17.0189 91.1947C17.0467 91.1205 17.1031 91.0603 17.1756 91.0272C17.2481 90.9942 17.3308 90.9911 17.4056 91.0185L256.804 179.421C256.879 179.449 256.939 179.505 256.973 179.577C257.006 179.649 257.009 179.731 256.981 179.806Z" fill="#F2F2F2"/>
<path d="M144.457 0H79.6228C74.5368 0.00575135 69.6609 2.02747 66.0646 5.62162C62.4683 9.21577 60.4453 14.0888 60.4396 19.1717V25.0285C60.3065 24.9919 60.1668 24.9867 60.0313 25.0134C59.8959 25.04 59.7686 25.0978 59.6593 25.182C59.55 25.2663 59.4619 25.3748 59.4018 25.499C59.3416 25.6231 59.3112 25.7595 59.3129 25.8975V30.4014C59.3112 30.5393 59.3416 30.6757 59.4018 30.7999C59.4619 30.9241 59.55 31.0326 59.6593 31.1168C59.7686 31.2011 59.8959 31.2588 60.0313 31.2855C60.1668 31.3121 60.3065 31.3069 60.4396 31.2703V38.0899C60.3065 38.0533 60.1668 38.0481 60.0313 38.0747C59.8959 38.1013 59.7685 38.159 59.6593 38.2433C59.55 38.3276 59.4618 38.4361 59.4017 38.5603C59.3416 38.6844 59.3112 38.8209 59.3129 38.9588V50.2186C59.3112 50.3565 59.3416 50.4929 59.4017 50.6171C59.4618 50.7413 59.55 50.8498 59.6593 50.934C59.7685 51.0183 59.8959 51.076 60.0313 51.1027C60.1668 51.1293 60.3065 51.1241 60.4396 51.0875V55.2047C60.3065 55.1681 60.1668 55.1629 60.0313 55.1895C59.8959 55.2162 59.7685 55.2739 59.6593 55.3582C59.55 55.4424 59.4618 55.5509 59.4017 55.6751C59.3416 55.7993 59.3112 55.9357 59.3129 56.0737V67.3334C59.3112 67.4714 59.3416 67.6078 59.4017 67.732C59.4618 67.8561 59.55 67.9646 59.6593 68.0489C59.7685 68.1332 59.8959 68.1909 60.0313 68.2175C60.1668 68.2442 60.3065 68.239 60.4396 68.2023V187.107C60.4453 192.19 62.4683 197.063 66.0646 200.657C69.6609 204.251 74.5368 206.273 79.6228 206.279H144.457C149.543 206.273 154.419 204.251 158.016 200.657C161.612 197.063 163.635 192.19 163.641 187.107V19.1717C163.635 14.0888 161.612 9.21577 158.016 5.62162C154.419 2.02747 149.543 0.00575135 144.457 0ZM159.585 187.107C159.58 191.115 157.985 194.958 155.149 197.792C152.313 200.627 148.468 202.221 144.457 202.225H79.6228C75.6122 202.221 71.7671 200.627 68.9312 197.792C66.0953 194.958 64.5001 191.115 64.4955 187.107V19.1717C64.5001 15.1635 66.0953 11.3208 68.9312 8.48656C71.7671 5.65233 75.6122 4.05806 79.6228 4.05351H144.457C148.468 4.05806 152.313 5.65232 155.149 8.48655C157.985 11.3208 159.58 15.1635 159.585 19.1717V187.107Z" fill="#3F3D56"/>
<path d="M144.457 204.477H79.6227C75.0147 204.472 70.5969 202.64 67.3386 199.384C64.0802 196.128 62.2474 191.712 62.2422 187.107V19.1717C62.2474 14.5665 64.0802 10.1514 67.3386 6.89495C70.5969 3.63855 75.0147 1.8068 79.6227 1.80157H144.457C149.065 1.8068 153.483 3.63854 156.741 6.89495C160 10.1514 161.833 14.5665 161.838 19.1717V187.107C161.833 191.712 160 196.128 156.741 199.384C153.483 202.64 149.065 204.472 144.457 204.477Z" fill="#E6E6E6"/>
<path d="M146.06 201.775H78.0206C74.9127 201.771 71.9331 200.536 69.7355 198.34C67.5379 196.143 66.3017 193.166 66.2982 190.06V16.2193C66.3017 13.1133 67.5378 10.1355 69.7355 7.93918C71.9331 5.74287 74.9127 4.50744 78.0206 4.50392H86.8936C87.4073 4.50451 87.8998 4.7087 88.263 5.07172C88.6262 5.43473 88.8305 5.92692 88.8311 6.44029C88.8328 7.95688 89.4364 9.41087 90.5094 10.4833C91.5825 11.5557 93.0373 12.1589 94.5548 12.1606H128.624C130.141 12.1589 131.596 11.5557 132.669 10.4833C133.742 9.41087 134.346 7.95687 134.348 6.44028C134.348 5.9269 134.553 5.43473 134.916 5.07171C135.279 4.7087 135.771 4.5045 136.285 4.50391H146.06C149.167 4.50743 152.147 5.74286 154.345 7.93916C156.542 10.1355 157.778 13.1133 157.782 16.2193V190.06C157.778 193.166 156.542 196.143 154.345 198.34C152.147 200.536 149.167 201.771 146.06 201.775Z" fill="white"/>
<path d="M114.969 8.44481H106.857C106.618 8.44481 106.389 8.34991 106.22 8.18098C106.051 8.01205 105.956 7.78293 105.956 7.54403C105.956 7.30513 106.051 7.07601 106.22 6.90708C106.389 6.73815 106.618 6.64325 106.857 6.64325H114.969C115.208 6.64325 115.438 6.73815 115.607 6.90708C115.776 7.07601 115.871 7.30513 115.871 7.54403C115.871 7.78293 115.776 8.01205 115.607 8.18098C115.438 8.34991 115.208 8.44481 114.969 8.44481Z" fill="white"/>
<path d="M120.603 8.21963C120.851 8.21963 121.053 8.01798 121.053 7.76924C121.053 7.52049 120.851 7.31885 120.603 7.31885C120.354 7.31885 120.152 7.52049 120.152 7.76924C120.152 8.01798 120.354 8.21963 120.603 8.21963Z" fill="white"/>
<path d="M159.974 39.6893H64.0167V40.7157H159.974V39.6893Z" fill="#E6E6E6"/>
<path d="M159.974 60.2182H64.0167V61.2446H159.974V60.2182Z" fill="#E6E6E6"/>
<path d="M159.974 102.645H64.0167V103.671H159.974V102.645Z" fill="#E6E6E6"/>
<path d="M159.974 145.071H64.0167V146.097H159.974V145.071Z" fill="#E6E6E6"/>
<path d="M159.974 178.26H64.0167V179.286H159.974V178.26Z" fill="#E6E6E6"/>
<path d="M133.703 40.2025H132.676V103.158H133.703V40.2025Z" fill="#E6E6E6"/>
<path d="M85.6658 103.139H84.6387V178.773H85.6658V103.139Z" fill="#E6E6E6"/>
<path d="M157.782 123.886H85.1523V124.913H157.782V123.886Z" fill="#E6E6E6"/>
<path d="M133.814 178.773H132.786V201.775H133.814V178.773Z" fill="#E6E6E6"/>
<path d="M133.018 81.8517H66.127V82.8782H133.018V81.8517Z" fill="#E6E6E6"/>
<path d="M80.0965 3.85537L79.149 4.25165L94.286 40.4006L95.2335 40.0044L80.0965 3.85537Z" fill="#E6E6E6"/>
<path d="M126.716 12.1605H125.689V40.2025H126.716V12.1605Z" fill="#E6E6E6"/>
<path d="M153.2 55.7702C153.2 64.9673 138.972 86.398 134.814 92.4646C134.688 92.648 134.52 92.798 134.323 92.9017C134.127 93.0053 133.908 93.0595 133.686 93.0595C133.463 93.0595 133.244 93.0053 133.048 92.9017C132.851 92.798 132.683 92.648 132.557 92.4646C128.399 86.398 114.171 64.9673 114.171 55.7702C114.171 50.5979 116.227 45.6373 119.887 41.9799C123.547 38.3225 128.51 36.2678 133.686 36.2678C138.861 36.2678 143.824 38.3225 147.484 41.9799C151.144 45.6373 153.2 50.5979 153.2 55.7702Z" fill="black"/>
<path d="M133.685 64.3239C139.169 64.3239 143.614 59.8816 143.614 54.4016C143.614 48.9217 139.169 44.4793 133.685 44.4793C128.202 44.4793 123.757 48.9217 123.757 54.4016C123.757 59.8816 128.202 64.3239 133.685 64.3239Z" fill="white"/>
<path d="M133.035 103.453L95.4359 178.531L96.3543 178.991L133.954 103.912L133.035 103.453Z" fill="#E6E6E6"/>
<path d="M187.184 119.968C187.628 120.206 188.118 120.344 188.62 120.372C189.123 120.401 189.626 120.319 190.093 120.132C190.56 119.945 190.981 119.658 191.325 119.291C191.67 118.925 191.929 118.487 192.086 118.009L204.318 117.797L200.727 112.555L189.662 113.559C188.841 113.349 187.971 113.447 187.218 113.835C186.465 114.223 185.88 114.874 185.575 115.664C185.27 116.454 185.265 117.328 185.561 118.121C185.858 118.915 186.436 119.572 187.184 119.968Z" fill="#FFB8B8"/>
<path d="M194.528 119.815C194.338 119.815 194.15 119.777 193.976 119.702C193.802 119.628 193.644 119.519 193.513 119.382C193.382 119.245 193.28 119.083 193.213 118.906C193.147 118.728 193.117 118.539 193.125 118.35L193.372 112.744C193.385 112.411 193.518 112.093 193.746 111.848C193.974 111.604 194.282 111.449 194.614 111.413L208.785 109.788L208.31 119.13L194.597 119.813C194.574 119.814 194.551 119.815 194.528 119.815Z" fill="black"/>
<path d="M211.786 196.652L207.796 197.954L200.871 183.194L206.76 181.272L211.786 196.652Z" fill="#FFB8B8"/>
<path d="M214.066 200.185L201.202 204.384L201.149 204.221C200.934 203.564 200.851 202.871 200.904 202.182C200.957 201.492 201.146 200.82 201.459 200.204C201.772 199.587 202.203 199.039 202.729 198.589C203.254 198.139 203.863 197.797 204.52 197.582L212.378 195.018L214.066 200.185Z" fill="#2F2E41"/>
<path d="M223.537 202.824L219.34 202.824L217.343 186.645L223.538 186.645L223.537 202.824Z" fill="#FFB8B8"/>
<path d="M224.608 206.891L211.074 206.89V206.719C211.074 206.028 211.211 205.343 211.475 204.704C211.74 204.066 212.128 203.485 212.617 202.996C213.106 202.508 213.687 202.12 214.326 201.855C214.965 201.591 215.65 201.455 216.342 201.455H216.342L224.608 201.455L224.608 206.891Z" fill="#2F2E41"/>
<path d="M217.162 198.886C216.819 198.886 216.488 198.76 216.232 198.532C215.975 198.305 215.811 197.991 215.77 197.651L210.358 152.437L202.437 165.145L211.731 188.883C211.858 189.211 211.857 189.574 211.729 189.902C211.602 190.23 211.356 190.498 211.041 190.654L203.157 194.51C202.977 194.598 202.78 194.647 202.58 194.652C202.38 194.658 202.18 194.621 201.996 194.543C201.811 194.465 201.645 194.349 201.509 194.202C201.373 194.055 201.27 193.881 201.207 193.691L192.47 167.308C191.812 165.323 191.726 163.192 192.222 161.16L197.871 137.989L197.937 137.953L210.673 130.982L210.746 131.008L225.743 136.479L224.174 166.184L225.314 197.014C225.33 197.38 225.2 197.738 224.954 198.01C224.708 198.282 224.364 198.445 223.998 198.466L217.25 198.884C217.221 198.885 217.192 198.886 217.162 198.886Z" fill="#2F2E41"/>
<path d="M208.901 146.794C206.66 146.794 204.773 146.156 203.591 144.535L203.553 144.483L204.317 136.467L197.52 140.238C197.379 140.317 197.218 140.35 197.057 140.333C196.897 140.317 196.745 140.251 196.623 140.146C196.501 140.041 196.415 139.901 196.375 139.745C196.335 139.588 196.344 139.424 196.401 139.273L204.878 116.774L210.476 98.4458C210.753 96.9789 211.47 95.6308 212.531 94.5801C213.592 93.5294 214.948 92.8257 216.418 92.5621C221.405 91.6467 224.374 93.3282 227.804 97.0596C228.633 97.9675 229.244 99.0528 229.59 100.233C229.935 101.412 230.007 102.656 229.798 103.867L226.554 122.398L227.507 139.013C227.58 139.3 227.561 139.602 227.451 139.876C227.342 140.151 227.149 140.384 226.899 140.542C224.247 142.229 216.117 146.793 208.901 146.794Z" fill="black"/>
<path d="M220.245 89.787C224.889 89.787 228.654 86.0246 228.654 81.3834C228.654 76.7423 224.889 72.9799 220.245 72.9799C215.601 72.9799 211.837 76.7423 211.837 81.3834C211.837 86.0246 215.601 89.787 220.245 89.787Z" fill="#FFB8B8"/>
<path d="M222.435 141.286C222.893 141.076 223.299 140.769 223.625 140.386C223.95 140.002 224.188 139.552 224.321 139.067C224.454 138.582 224.479 138.074 224.394 137.578C224.309 137.082 224.116 136.611 223.829 136.198L231.041 126.321L224.691 126.02L218.816 135.445C218.153 135.973 217.707 136.725 217.562 137.559C217.417 138.394 217.584 139.252 218.03 139.972C218.476 140.692 219.171 141.224 219.983 141.466C220.795 141.708 221.667 141.644 222.435 141.286Z" fill="#FFB8B8"/>
<path d="M226.341 135.713C225.989 135.763 225.631 135.678 225.34 135.475L220.565 132.147C220.278 131.949 220.076 131.65 219.998 131.31C219.92 130.97 219.973 130.613 220.145 130.31L228.644 115.197L220.096 104.913C219.647 104.373 219.315 103.746 219.122 103.071C218.929 102.395 218.879 101.688 218.975 100.992C219.071 100.297 219.31 99.6286 219.678 99.0307C220.046 98.4327 220.535 97.9179 221.113 97.5189C221.691 97.12 222.346 96.8457 223.036 96.7135C223.726 96.5813 224.436 96.594 225.12 96.751C225.805 96.908 226.449 97.2057 227.013 97.6252C227.576 98.0446 228.046 98.5767 228.392 99.1876L237.831 115.837C237.898 115.955 237.933 116.089 237.933 116.225C237.933 116.361 237.897 116.495 237.83 116.614L227.363 135.017C227.266 135.187 227.135 135.334 226.978 135.45C226.822 135.567 226.642 135.649 226.452 135.692C226.415 135.701 226.378 135.707 226.341 135.713Z" fill="black"/>
<path d="M216.885 80.3107C216.052 79.6899 214.9 79.7868 213.914 79.4613C213.327 79.2676 212.801 78.923 212.39 78.4621C211.978 78.0011 211.695 77.4401 211.568 76.8353C211.442 76.2304 211.477 75.6029 211.669 75.0158C211.862 74.4287 212.206 73.9026 212.667 73.4902C213.732 72.5365 215.247 72.32 216.666 72.1455C218.611 71.9065 220.574 71.6671 222.524 71.8571C224.473 72.0472 226.436 72.7055 227.861 74.0488C229.433 75.53 230.207 77.7349 230.212 79.8937C230.157 82.0625 229.561 84.1833 228.479 86.0638C228.144 86.7784 227.64 87.4002 227.009 87.8752C226.353 88.3079 225.429 88.4211 224.797 87.9538C224.252 87.55 224.052 86.8425 223.805 86.21C223.558 85.5775 223.138 84.9038 222.465 84.8063C221.6 84.6806 220.939 85.5603 220.113 85.8481C218.958 86.2507 217.675 85.3603 217.204 84.2319C216.732 83.1035 216.856 81.8268 216.989 80.6112" fill="#2F2E41"/>
<path d="M257 206.5C257 206.368 256.968 206.241 256.911 206.147C256.855 206.053 256.778 206 256.698 206H0.302353C0.222164 206 0.145259 206.053 0.0885569 206.146C0.0318547 206.24 0 206.367 0 206.5C0 206.633 0.0318547 206.76 0.0885569 206.854C0.145259 206.947 0.222164 207 0.302353 207H256.698C256.778 207 256.855 206.947 256.911 206.853C256.968 206.759 257 206.632 257 206.5Z" fill="#CCCCCC"/>
<path d="M133.685 107.435C136.143 107.435 138.136 105.443 138.136 102.987C138.136 100.53 136.143 98.5388 133.685 98.5388C131.227 98.5388 129.235 100.53 129.235 102.987C129.235 105.443 131.227 107.435 133.685 107.435Z" fill="black"/>
<path d="M196.343 54.3541C194.484 56.8299 186.323 59.7267 183.977 60.5204C183.907 60.5444 183.831 60.5508 183.757 60.539C183.683 60.5273 183.613 60.4977 183.554 60.4528C183.494 60.4079 183.446 60.3491 183.414 60.2815C183.382 60.2139 183.367 60.1396 183.37 60.0649C183.477 57.5925 183.978 48.9516 185.837 46.4758C186.882 45.0835 188.438 44.1632 190.162 43.9174C191.887 43.6716 193.638 44.1204 195.031 45.1652C196.424 46.2099 197.345 47.7649 197.591 49.4882C197.837 51.2115 197.388 52.9618 196.343 54.3541Z" fill="#F2F2F2"/>
<path d="M191.366 53.3858C193.212 53.3858 194.708 51.8908 194.708 50.0466C194.708 48.2024 193.212 46.7073 191.366 46.7073C189.521 46.7073 188.025 48.2024 188.025 50.0466C188.025 51.8908 189.521 53.3858 191.366 53.3858Z" fill="white"/>
<path d="M181.547 64.622C182.374 64.622 183.045 63.9518 183.045 63.1251C183.045 62.2984 182.374 61.6282 181.547 61.6282C180.72 61.6282 180.049 62.2984 180.049 63.1251C180.049 63.9518 180.72 64.622 181.547 64.622Z" fill="#F2F2F2"/>
<path d="M33.44 122.264C36.1751 126.44 36.0877 140.398 36.0038 144.387C36.0013 144.508 35.9695 144.626 35.9111 144.731C35.8527 144.837 35.7694 144.927 35.6684 144.993C35.5675 145.059 35.452 145.099 35.3319 145.11C35.2118 145.122 35.0907 145.104 34.9792 145.058C31.287 143.538 18.4529 138.033 15.7178 133.856C14.955 132.693 14.4291 131.392 14.17 130.026C13.9108 128.659 13.9236 127.256 14.2076 125.894C14.4915 124.533 15.041 123.241 15.8248 122.092C16.6085 120.943 17.6111 119.96 18.7753 119.198C19.9394 118.437 21.2423 117.912 22.6094 117.654C23.9766 117.396 25.3812 117.41 26.7431 117.694C28.105 117.979 29.3974 118.529 30.5465 119.313C31.6955 120.097 32.6788 121.1 33.44 122.264Z" fill="#F2F2F2"/>
<path d="M24.1719 132.823C27.1477 132.823 29.56 130.413 29.56 127.439C29.56 124.465 27.1477 122.054 24.1719 122.054C21.1961 122.054 18.7838 124.465 18.7838 127.439C18.7838 130.413 21.1961 132.823 24.1719 132.823Z" fill="white"/>
<path d="M38.6207 151.914C39.9547 151.914 41.0361 150.834 41.0361 149.5C41.0361 148.167 39.9547 147.087 38.6207 147.087C37.2867 147.087 36.2053 148.167 36.2053 149.5C36.2053 150.834 37.2867 151.914 38.6207 151.914Z" fill="#F2F2F2"/>
</svg>
