<svg width="227" height="212" viewBox="0 0 227 212" fill="none" xmlns="http://www.w3.org/2000/svg">
<path d="M209.84 162.186L220.023 163.775C223.47 159.608 225.846 154.663 226.945 149.371C219.499 155.457 208.175 152.223 199.146 155.545C196.338 156.603 193.804 158.279 191.733 160.447C189.661 162.616 188.105 165.222 187.179 168.073L182.202 173.42C186.707 175.201 191.545 175.985 196.383 175.719C201.221 175.453 205.943 174.143 210.225 171.879C212.615 170.585 214.832 168.996 216.824 167.149C213.261 164.909 209.84 162.186 209.84 162.186Z" fill="#F2F2F2"/>
<path d="M206.225 145.923L216.049 142.811C217.273 137.546 217.191 132.062 215.811 126.835C211.865 135.599 200.285 137.747 193.687 144.742C191.646 146.939 190.127 149.567 189.241 152.431C188.356 155.294 188.127 158.32 188.572 161.284L186.505 168.286C191.333 167.873 196.013 166.421 200.225 164.028C204.436 161.636 208.078 158.36 210.899 154.427C212.46 152.205 213.734 149.795 214.692 147.255C210.502 146.837 206.225 145.923 206.225 145.923Z" fill="#F2F2F2"/>
<path d="M93.7329 159.639C133.625 159.639 165.965 127.347 165.965 87.513C165.965 47.6788 133.625 15.3867 93.7329 15.3867C53.8402 15.3867 21.5009 47.6788 21.5009 87.513C21.5009 127.347 53.8402 159.639 93.7329 159.639Z" fill="#E6E6E6"/>
<path d="M155.886 87.513C155.893 97.197 153.628 106.748 149.271 115.4C144.915 124.052 138.588 131.564 130.8 137.334C130.279 137.723 129.748 138.102 129.214 138.471C118.798 145.7 106.417 149.575 93.7328 149.575C81.0483 149.575 68.6673 145.7 58.2518 138.471C57.7176 138.102 57.1868 137.723 56.6661 137.334C48.8827 131.559 42.5603 124.046 38.2043 115.395C33.8484 106.744 31.5797 97.1957 31.5797 87.513C31.5797 77.8303 33.8484 68.2819 38.2043 59.6311C42.5603 50.9803 48.8827 43.4671 56.6661 37.6921C57.1868 37.303 57.7176 36.9239 58.2518 36.5549C68.6673 29.3255 81.0483 25.4508 93.7328 25.4508C106.417 25.4508 118.798 29.3255 129.214 36.5549C129.748 36.9239 130.279 37.303 130.8 37.6921C138.588 43.462 144.915 50.9742 149.271 59.6261C153.628 68.278 155.893 77.829 155.886 87.513Z" fill="white"/>
<path d="M93.7329 144.208C125.09 144.208 150.511 118.825 150.511 87.513C150.511 56.2014 125.09 30.8184 93.7329 30.8184C62.3754 30.8184 36.9551 56.2014 36.9551 87.513C36.9551 118.825 62.3754 144.208 93.7329 144.208Z" fill="black"/>
<path opacity="0.2" d="M93.881 30.9769C93.0203 30.9769 92.1648 30.9993 91.3135 31.0372C105.664 32.2963 118.998 38.9553 128.615 49.665C138.232 60.3747 143.412 74.3342 143.107 88.7155C142.801 103.097 137.032 116.824 126.969 127.117C116.905 137.409 103.3 143.497 88.9092 144.147C90.5479 144.289 92.2054 144.366 93.881 144.366C108.939 144.366 123.381 138.393 134.029 127.761C144.677 117.128 150.659 102.708 150.659 87.6715C150.659 72.6352 144.677 58.2147 134.029 47.5823C123.381 36.95 108.939 30.9769 93.881 30.9769Z" fill="black"/>
<path d="M93.9008 26.7927C93.411 26.7936 92.9415 26.9883 92.5952 27.3341C92.2488 27.6799 92.0539 28.1487 92.053 28.6378V36.6891C92.053 37.1785 92.2477 37.6478 92.5942 37.9938C92.9408 38.3398 93.4108 38.5342 93.9008 38.5342C94.3909 38.5342 94.8609 38.3398 95.2074 37.9938C95.554 37.6478 95.7486 37.1785 95.7486 36.6891V28.6378C95.7478 28.1487 95.5528 27.6799 95.2065 27.3341C94.8601 26.9883 94.3906 26.7936 93.9008 26.7927Z" fill="white"/>
<path d="M130.8 37.6922C130.279 37.303 129.748 36.9239 129.214 36.5549C128.893 36.5341 128.573 36.5971 128.284 36.7377C127.996 36.8783 127.749 37.0916 127.568 37.3567L123.029 44.0091C122.753 44.4135 122.649 44.9107 122.741 45.3913C122.832 45.872 123.111 46.2967 123.516 46.5721C123.921 46.8475 124.419 46.9509 124.9 46.8597C125.382 46.7685 125.807 46.49 126.083 46.0857L130.622 39.4333C130.794 39.1809 130.901 38.8894 130.932 38.5853C130.963 38.2812 130.918 37.9742 130.8 37.6922Z" fill="white"/>
<path d="M151.421 68.0255C151.33 67.8012 151.195 67.597 151.025 67.4247C150.855 67.2524 150.652 67.1153 150.429 67.0212C150.205 66.9271 149.965 66.8779 149.723 66.8764C149.48 66.8749 149.24 66.9211 149.016 67.0123L141.544 70.0416C141.09 70.2261 140.729 70.5829 140.538 71.0334C140.348 71.484 140.345 71.9916 140.529 72.4447C140.713 72.8977 141.07 73.2591 141.521 73.4495C141.972 73.64 142.481 73.6437 142.935 73.4601L150.406 70.4308C150.86 70.2454 151.221 69.8882 151.411 69.4374C151.601 68.9865 151.605 68.4789 151.421 68.0255Z" fill="white"/>
<path d="M64.4369 44.0091L59.8981 37.3567C59.7172 37.0916 59.4702 36.8783 59.1815 36.7377C58.8928 36.5971 58.5724 36.5341 58.2518 36.5549C57.7177 36.9239 57.1868 37.303 56.6661 37.6922C56.5481 37.9742 56.5025 38.2812 56.5336 38.5853C56.5647 38.8894 56.6715 39.1809 56.8442 39.4333L61.383 46.0857C61.6588 46.49 62.0841 46.7685 62.5655 46.8597C63.0469 46.9509 63.5448 46.8475 63.9498 46.5721C64.3547 46.2967 64.6336 45.872 64.7249 45.3913C64.8163 44.9107 64.7127 44.4135 64.4369 44.0091Z" fill="white"/>
<path d="M45.922 70.0417L38.4502 67.0124C37.9962 66.8283 37.4876 66.8318 37.0363 67.0222C36.5849 67.2125 36.2277 67.574 36.0433 68.0273C35.8589 68.4806 35.8623 68.9884 36.0529 69.4391C36.2434 69.8899 36.6054 70.2466 37.0593 70.4308L44.5311 73.4601C44.985 73.6438 45.4933 73.64 45.9444 73.4496C46.3955 73.2592 46.7524 72.8977 46.9367 72.4447C47.121 71.9916 47.1177 71.4841 46.9274 71.0335C46.7372 70.5829 46.3755 70.2262 45.922 70.0417Z" fill="white"/>
<path d="M93.9008 136.492C93.411 136.493 92.9415 136.687 92.5952 137.033C92.2488 137.379 92.0539 137.848 92.053 138.337V146.388C92.053 146.878 92.2477 147.347 92.5942 147.693C92.9408 148.039 93.4108 148.233 93.9008 148.233C94.3909 148.233 94.8609 148.039 95.2074 147.693C95.554 147.347 95.7486 146.878 95.7486 146.388V138.337C95.7478 137.848 95.5528 137.379 95.2065 137.033C94.8601 136.687 94.3906 136.493 93.9008 136.492Z" fill="white"/>
<path d="M130.622 135.593L126.083 128.94C125.946 128.74 125.771 128.569 125.569 128.436C125.366 128.303 125.139 128.211 124.9 128.166C124.662 128.121 124.417 128.123 124.179 128.173C123.942 128.222 123.716 128.318 123.516 128.454C123.315 128.59 123.144 128.765 123.011 128.967C122.878 129.17 122.786 129.397 122.741 129.635C122.696 129.873 122.698 130.117 122.747 130.354C122.797 130.592 122.892 130.817 123.029 131.017L127.568 137.669C127.749 137.934 127.995 138.148 128.284 138.288C128.573 138.429 128.893 138.492 129.214 138.471C129.748 138.102 130.279 137.723 130.8 137.334C130.918 137.052 130.963 136.745 130.932 136.441C130.901 136.137 130.794 135.845 130.622 135.593Z" fill="white"/>
<path d="M150.406 104.595L142.935 101.566C142.481 101.382 141.972 101.385 141.521 101.576C141.069 101.766 140.712 102.128 140.528 102.581C140.343 103.034 140.347 103.542 140.537 103.993C140.728 104.443 141.09 104.8 141.544 104.984L149.016 108.014C149.469 108.197 149.978 108.193 150.429 108.003C150.88 107.813 151.237 107.451 151.421 106.998C151.606 106.545 151.602 106.038 151.412 105.587C151.222 105.136 150.86 104.78 150.406 104.595Z" fill="white"/>
<path d="M63.9498 128.454C63.5447 128.179 63.0468 128.075 62.5655 128.166C62.0842 128.258 61.6589 128.536 61.383 128.94L56.8442 135.593C56.6715 135.845 56.5647 136.137 56.5336 136.441C56.5025 136.745 56.5481 137.052 56.6661 137.334C57.1868 137.723 57.7177 138.102 58.2518 138.471C58.5724 138.492 58.8928 138.429 59.1815 138.288C59.4702 138.148 59.7172 137.934 59.8981 137.669L64.4369 131.017C64.5735 130.817 64.6692 130.592 64.7186 130.354C64.7681 130.117 64.7702 129.873 64.725 129.635C64.6797 129.397 64.588 129.17 64.455 128.967C64.322 128.765 64.1503 128.59 63.9498 128.454Z" fill="white"/>
<path d="M46.9366 102.579C46.8453 102.355 46.7107 102.151 46.5404 101.978C46.3701 101.806 46.1675 101.669 45.9441 101.575C45.7207 101.481 45.4809 101.431 45.2385 101.43C44.996 101.428 44.7557 101.475 44.5311 101.566L37.0593 104.595C36.6058 104.78 36.2441 105.136 36.0538 105.587C35.8636 106.038 35.8602 106.545 36.0446 106.998C36.2289 107.451 36.5858 107.813 37.0369 108.003C37.488 108.193 37.9963 108.197 38.4502 108.014L45.922 104.984C46.3753 104.799 46.7366 104.442 46.9268 103.991C47.1169 103.54 47.1205 103.032 46.9366 102.579Z" fill="white"/>
<path d="M96.2983 86.5975C96.469 87.606 96.232 88.641 95.6394 89.4752C95.0468 90.3095 94.147 90.875 93.1373 91.0477L60.348 96.617C59.8478 96.7019 59.3358 96.6877 58.8411 96.575C58.3464 96.4624 57.8788 96.2535 57.465 95.9604C57.0511 95.6674 56.6991 95.2957 56.4291 94.8668C56.1591 94.4379 55.9763 93.9601 55.8913 93.4606C55.8062 92.9611 55.8205 92.4498 55.9333 91.9559C56.0461 91.4619 56.2552 90.995 56.5487 90.5818C56.8422 90.1685 57.2144 89.8171 57.644 89.5474C58.0735 89.2778 58.5521 89.0953 59.0522 89.0104L91.8416 83.4411C92.8516 83.2707 93.8881 83.5074 94.7236 84.0991C95.5591 84.6908 96.1254 85.5893 96.2983 86.5975Z" fill="#E6E6E6"/>
<path d="M130.808 122.872C130.337 123.345 129.697 123.612 129.029 123.615C128.361 123.618 127.72 123.356 127.245 122.886L91.9476 87.9171C91.4739 87.447 91.2065 86.8083 91.2042 86.1414C91.2019 85.4745 91.4648 84.834 91.9352 84.3606C92.4056 83.8872 93.045 83.6196 93.7128 83.6167C94.3807 83.6137 95.0224 83.8757 95.4969 84.3449L130.794 119.314C131.268 119.784 131.535 120.423 131.538 121.09C131.541 121.757 131.278 122.398 130.808 122.872Z" fill="#E6E6E6"/>
<path d="M93.7329 91.8741C96.145 91.8741 98.1004 89.9216 98.1004 87.513C98.1004 85.1044 96.145 83.1519 93.7329 83.1519C91.3208 83.1519 89.3654 85.1044 89.3654 87.513C89.3654 89.9216 91.3208 91.8741 93.7329 91.8741Z" fill="white"/>
<path d="M63.6494 11.8907C56.9454 22.4153 46.7164 29.3999 34.1016 33.9883C33.8523 34.1748 33.5687 34.3103 33.267 34.3873C32.9652 34.4643 32.6513 34.4812 32.343 34.437C32.0347 34.3928 31.7382 34.2884 31.4703 34.1298C31.2024 33.9712 30.9684 33.7614 30.7817 33.5125C23.9295 24.3768 25.4767 11.3201 34.5203 4.33931C36.7067 2.65454 39.2065 1.42022 41.8745 0.708024C44.5426 -0.00417382 47.3257 -0.18007 50.0624 0.190551C52.7991 0.561172 55.4348 1.47093 57.8165 2.867C60.1982 4.26307 62.2784 6.11765 63.9365 8.32306L64.126 8.57574C64.3127 8.82465 64.4484 9.10784 64.5255 9.40914C64.6026 9.71044 64.6195 10.024 64.5753 10.3318C64.531 10.6396 64.4265 10.9357 64.2676 11.2032C64.1088 11.4707 63.8987 11.7043 63.6494 11.8907Z" fill="#E6E6E6"/>
<path d="M123.529 8.323C125.187 6.11758 127.268 4.263 129.649 2.86693C132.031 1.47086 134.667 0.561112 137.403 0.190491C140.14 -0.18013 142.923 -0.00423854 145.591 0.707959C148.259 1.42016 150.759 2.65447 152.945 4.33924C161.989 11.32 163.536 24.3767 156.684 33.5125C156.497 33.7614 156.263 33.9711 155.995 34.1297C155.728 34.2884 155.431 34.3927 155.123 34.4369C154.814 34.4811 154.5 34.4642 154.199 34.3873C153.897 34.3103 153.613 34.1747 153.364 33.9883C141.653 29.5113 132.05 21.7639 123.816 11.8906C123.313 11.5142 122.98 10.9534 122.89 10.3317C122.801 9.71002 122.963 9.07836 123.34 8.57567L123.529 8.323Z" fill="#E6E6E6"/>
<path d="M120.591 150.001C120.164 150.24 119.849 150.639 119.716 151.11C119.583 151.58 119.642 152.085 119.881 152.512L130.545 171.541C130.784 171.968 131.184 172.282 131.655 172.415C132.127 172.548 132.632 172.488 133.059 172.249C133.487 172.01 133.802 171.612 133.935 171.141C134.068 170.67 134.009 170.166 133.77 169.739L123.106 150.71C122.866 150.283 122.466 149.969 121.995 149.836C121.524 149.703 121.019 149.763 120.591 150.001Z" fill="#E6E6E6"/>
<path d="M64.3601 150.71L53.696 169.739C53.4568 170.166 53.3973 170.67 53.5305 171.141C53.6637 171.612 53.9787 172.01 54.4063 172.249C54.8339 172.488 55.3391 172.548 55.8106 172.415C56.2822 172.282 56.6816 171.968 56.921 171.541L67.585 152.512C67.7036 152.3 67.7793 152.068 67.8078 151.827C67.8363 151.586 67.817 151.342 67.7511 151.109C67.6852 150.876 67.5739 150.658 67.4236 150.468C67.2733 150.277 67.0869 150.119 66.8751 150C66.6633 149.882 66.4303 149.806 66.1892 149.778C65.9482 149.75 65.704 149.769 65.4704 149.835C65.2369 149.901 65.0186 150.012 64.8281 150.162C64.6376 150.312 64.4785 150.498 64.3601 150.71Z" fill="#E6E6E6"/>
<path d="M132.705 176.413C135.859 176.413 138.416 173.86 138.416 170.71C138.416 167.56 135.859 165.007 132.705 165.007C129.55 165.007 126.993 167.56 126.993 170.71C126.993 173.86 129.55 176.413 132.705 176.413Z" fill="#E6E6E6"/>
<path d="M136.736 30.4829C139.89 30.4829 142.447 27.9295 142.447 24.7799C142.447 21.6302 139.89 19.0768 136.736 19.0768C133.582 19.0768 131.025 21.6302 131.025 24.7799C131.025 27.9295 133.582 30.4829 136.736 30.4829Z" fill="#E6E6E6"/>
<path d="M93.3969 17.064C96.5512 17.064 99.1083 14.5107 99.1083 11.361C99.1083 8.21134 96.5512 5.65802 93.3969 5.65802C90.2426 5.65802 87.6855 8.21134 87.6855 11.361C87.6855 14.5107 90.2426 17.064 93.3969 17.064Z" fill="#E6E6E6"/>
<path d="M52.0735 29.812C55.2278 29.812 57.7848 27.2586 57.7848 24.109C57.7848 20.9593 55.2278 18.4059 52.0735 18.4059C48.9192 18.4059 46.3621 20.9593 46.3621 24.109C46.3621 27.2586 48.9192 29.812 52.0735 29.812Z" fill="#E6E6E6"/>
<path d="M55.7691 176.413C58.9234 176.413 61.4804 173.86 61.4804 170.71C61.4804 167.56 58.9234 165.007 55.7691 165.007C52.6148 165.007 50.0577 167.56 50.0577 170.71C50.0577 173.86 52.6148 176.413 55.7691 176.413Z" fill="#E6E6E6"/>
<path d="M128.225 119.665C128.45 120.017 128.749 120.315 129.102 120.539C129.456 120.763 129.854 120.907 130.268 120.96C130.683 121.014 131.105 120.976 131.503 120.85C131.902 120.723 132.268 120.511 132.575 120.227L141.537 125.022L141.057 119.768L132.62 116.021C132.109 115.536 131.439 115.256 130.735 115.232C130.031 115.209 129.343 115.444 128.801 115.893C128.259 116.342 127.901 116.974 127.795 117.67C127.689 118.365 127.842 119.075 128.225 119.665Z" fill="#FFB7B7"/>
<path d="M134.754 121.498L138.266 116.658L155.185 124.644L176.239 120.7C177.28 120.505 178.351 120.541 179.376 120.806C180.401 121.07 181.355 121.557 182.171 122.232C182.986 122.906 183.643 123.752 184.094 124.708C184.546 125.664 184.781 126.708 184.783 127.765C184.784 129.675 184.027 131.507 182.677 132.86C181.327 134.213 179.495 134.976 177.583 134.982L153.455 135.026L134.754 121.498Z" fill="#1E1E1E"/>
<path d="M129.345 205.107L125.792 203.41L130.673 188.579L135.917 191.084L129.345 205.107Z" fill="#FFB7B7"/>
<path d="M153.167 202.716C152.909 202.878 152.65 203.037 152.389 203.196C151.87 203.513 151.345 203.826 150.821 204.134C150.557 204.287 150.291 204.441 150.027 204.592V204.6L150.012 204.603L150.006 204.605L149.604 204.705L149.028 203.182L148.761 202.481L148.386 201.488L147.697 199.672L144.069 190.107L149.709 188.718L149.92 189.581H149.923L150.027 190.008L151.998 197.988L152.4 199.62L152.413 199.669L152.656 200.644L152.864 201.488L153.097 202.432L153.167 202.716Z" fill="#FFB7B7"/>
<path d="M186.813 169.127C186.456 169.7 186.09 170.271 185.722 170.837C185.038 171.889 184.336 172.927 183.616 173.948C183.616 173.951 183.613 173.951 183.611 173.954C183.191 174.342 182.726 174.681 182.227 174.962C182.207 174.978 182.183 174.988 182.162 175.001C181.795 175.204 181.404 175.361 180.998 175.468C180.852 175.504 180.703 175.541 180.557 175.577C180.03 175.702 179.508 175.809 178.988 175.903C178.065 176.067 177.151 176.184 176.243 176.257C176.17 176.265 176.097 176.27 176.023 176.276C172.289 176.549 168.653 176.109 164.858 175.387C162.984 175.032 161.071 174.608 159.09 174.167C158.443 174.021 157.793 173.878 157.135 173.735C157.085 173.724 157.033 173.711 156.981 173.701C156.041 173.495 155.086 173.292 154.107 173.091C152.875 172.838 151.604 172.593 150.284 172.361L150.378 174.219C150.456 175.649 150.753 177.058 151.26 178.397C151.824 180.044 152.27 181.347 151.328 184.06L150.873 185.374C151.109 186.026 151.19 186.724 151.11 187.413C151.029 188.101 150.79 188.762 150.412 189.343L150.32 189.481L154.107 199.049L154.353 199.669H152.413L150.028 199.671H145.985L140.152 187.985L139.872 187.428V187.399L140.475 164.941C140.483 164.743 140.499 164.543 140.525 164.345C140.631 163.444 140.916 162.574 141.363 161.785C141.81 160.995 142.409 160.303 143.127 159.747C143.815 159.211 144.602 158.816 145.444 158.586C146.286 158.356 147.166 158.295 148.031 158.408L150.028 158.666L154.107 159.192L156.981 159.565L157.038 159.573L165.513 160.667L166.121 158.191L166.233 158.15L169.801 156.844L182.141 152.327L182.173 152.317L182.984 152.02L183.081 152.176C183.11 152.223 183.138 152.27 183.164 152.317C183.967 153.753 184.62 155.267 185.114 156.836C185.945 159.399 186.629 162.007 187.163 164.647C187.186 164.762 187.207 164.866 187.226 164.96L187.233 164.988C187.241 165.033 187.247 165.061 187.249 165.069C187.534 166.252 187.335 167.696 186.813 169.127Z" fill="black"/>
<path d="M187.334 160.851C187.295 160.684 187.245 160.514 187.193 160.35C186.779 159.107 186.296 157.887 185.747 156.696C185.131 155.341 184.393 153.89 183.513 152.318C183.088 151.557 182.63 150.766 182.14 149.944C181.895 149.532 181.64 149.112 181.375 148.685C181.365 148.665 181.354 148.646 181.342 148.628L181.266 148.503L169.056 150.134L164.51 150.741L164.238 153.003L164.173 153.564C164.17 153.564 164.17 153.564 164.173 153.566L163.99 155.094V155.096L163.747 157.113L163.727 157.111L156.98 156.238L150.027 155.339L146.292 154.856C145.426 154.744 144.547 154.804 143.705 155.034C142.863 155.264 142.075 155.659 141.388 156.196C140.67 156.752 140.07 157.444 139.624 158.233C139.177 159.023 138.892 159.893 138.785 160.793C138.762 160.976 138.746 161.163 138.738 161.348L135.215 169.686C133.106 174.672 131.764 179.947 131.232 185.333L128.648 193.582L129.016 193.616L134.492 194.124L135.938 194.259L139.122 189.618C139.485 189.089 139.829 188.544 140.15 187.986C140.679 187.075 141.149 186.132 141.557 185.161L148.445 168.794C148.977 168.886 149.505 168.972 150.027 169.055C152.441 169.446 154.759 169.765 156.98 170.011C164.202 170.817 170.455 170.879 176.022 170.196C177.586 170.006 179.097 169.756 180.556 169.446C181.091 169.334 181.619 169.213 182.14 169.084C182.263 169.055 182.383 169.026 182.503 168.995C183.582 168.717 184.573 168.174 185.387 167.414C186.201 166.655 186.811 165.704 187.162 164.648C187.58 163.424 187.64 162.107 187.334 160.851Z" fill="black"/>
<path d="M130.48 202.685L126.636 200.845L126.033 200.556L125.07 202.917L118.346 204.395C118.014 204.468 117.714 204.645 117.489 204.9C117.265 205.155 117.128 205.476 117.099 205.814C117.069 206.153 117.149 206.492 117.327 206.782C117.505 207.072 117.77 207.297 118.085 207.426L124.655 210.102L126.74 208.228L126.229 210.743L128.703 211.752L131.415 203.133L130.48 202.685Z" fill="#2F2E41"/>
<path d="M154.107 199.048L154.353 199.669H154.107V199.048Z" fill="#2F2E41"/>
<path d="M152.768 199.801L148.74 201.195L148.108 201.413L149.087 203.768L145.351 209.541C145.166 209.827 145.077 210.163 145.098 210.503C145.118 210.842 145.247 211.166 145.465 211.427C145.682 211.688 145.978 211.873 146.309 211.954C146.639 212.035 146.987 212.009 147.301 211.878L153.855 209.165L154.017 206.368L155.426 208.515L157.894 207.493L153.748 199.463L152.768 199.801Z" fill="#2F2E41"/>
<path d="M186.329 164.626C186.09 164.626 185.855 164.568 185.643 164.456L164.385 153.365L164.14 152.361L163.677 149.183L163.683 149.154L165.705 139.846C165.668 139.767 165.59 139.635 165.503 139.487C164.6 137.96 161.854 133.313 167.096 126.914L176.3 116.199L184.199 115.86L184.289 115.973C186.401 118.62 187.826 121.748 188.436 125.077C189.046 128.406 188.823 131.835 187.786 135.057L186.964 149.891L187.846 152.887C188.362 154.647 188.277 156.529 187.604 158.235L187.806 163.086C187.814 163.285 187.781 163.483 187.711 163.669C187.64 163.855 187.533 164.025 187.395 164.169C187.257 164.313 187.092 164.427 186.909 164.506C186.726 164.585 186.529 164.626 186.329 164.626Z" fill="#1E1E1E"/>
<path d="M167.89 176.86C168.25 176.647 168.559 176.359 168.795 176.014C169.032 175.669 169.189 175.277 169.258 174.865C169.326 174.453 169.302 174.031 169.19 173.629C169.077 173.227 168.877 172.854 168.604 172.537L173.715 163.761L168.44 164.058L164.395 172.347C163.893 172.839 163.589 173.499 163.541 174.2C163.493 174.902 163.704 175.597 164.135 176.153C164.566 176.709 165.186 177.089 165.878 177.219C166.57 177.349 167.286 177.221 167.89 176.86Z" fill="#FFB7B7"/>
<path d="M169.952 170.407L165.229 166.734L173.811 150.128L170.596 128.98C170.437 127.935 170.51 126.867 170.811 125.854C171.111 124.84 171.632 123.905 172.335 123.114C173.039 122.324 173.908 121.698 174.881 121.281C175.853 120.864 176.906 120.665 177.965 120.7C179.876 120.765 181.684 121.584 182.991 122.979C184.298 124.373 184.998 126.228 184.937 128.136L184.142 152.216L169.952 170.407Z" fill="#1E1E1E"/>
<path d="M171.233 111.747V103.942C171.231 101.168 172.333 98.5067 174.296 96.544C176.259 94.5813 178.922 93.4776 181.7 93.4758C184.478 93.4741 187.143 94.5743 189.109 96.5345C191.074 98.4946 192.18 101.154 192.181 103.928V103.942C194.027 107.783 192.872 109.609 192.181 111.747C192.181 112.119 192.032 112.476 191.769 112.739C191.505 113.002 191.148 113.151 190.775 113.151H172.64C172.267 113.151 171.909 113.003 171.645 112.739C171.382 112.476 171.233 112.119 171.233 111.747Z" fill="#2F2E41"/>
<path d="M178.273 112.644C182.603 112.644 186.113 109.139 186.113 104.815C186.113 100.491 182.603 96.9861 178.273 96.9861C173.943 96.9861 170.432 100.491 170.432 104.815C170.432 109.139 173.943 112.644 178.273 112.644Z" fill="#FFB7B7"/>
<path d="M186.478 106.867C186.407 106.856 186.336 106.841 186.265 106.83C185.042 106.613 183.819 106.401 182.6 106.18L182.487 103.42L181.01 105.893C177.64 107.009 174.488 106.378 171.522 104.985C170.543 104.521 169.594 103.999 168.679 103.42C168.928 101.894 169.516 100.443 170.399 99.1723C171.283 97.902 172.439 96.8449 173.784 96.0783C173.897 96.0148 174.005 95.9588 174.117 95.9028L174.119 95.9025L174.12 95.9017L174.121 95.9005L174.121 95.899C174.312 95.8094 174.506 95.7235 174.701 95.6451C176.223 95.051 177.883 94.9005 179.488 95.2112C181.093 95.5219 182.577 96.281 183.766 97.4003C186.16 99.6822 187.237 103.45 186.478 106.867Z" fill="#2F2E41"/>
</svg>
