<svg width="232" height="217" viewBox="0 0 232 217" fill="none" xmlns="http://www.w3.org/2000/svg">
<g clip-path="url(#clip0_113_1487)">
<path d="M156.384 153.834H73.1596C66.1641 153.834 60.4729 148.125 60.4729 141.108V57.6231C60.4729 50.6058 66.1641 44.8969 73.1596 44.8969H156.384C163.38 44.8969 169.071 50.6058 169.071 57.6231V141.108C169.071 148.125 163.38 153.834 156.384 153.834ZM73.1596 46.9331C67.274 46.9331 62.5028 51.7192 62.5028 57.6231V141.108C62.5028 147.012 67.274 151.798 73.1596 151.798H131.456C151.109 151.798 167.041 135.816 167.041 116.102V57.6231C167.041 51.7192 162.27 46.9331 156.384 46.9331L73.1596 46.9331Z" fill="#F2F2F2"/>
<path d="M82.132 55.6146C78.1931 55.6146 74.9887 58.8289 74.9887 62.7802V73.9959C74.9887 77.9472 78.1931 81.1616 82.132 81.1616H93.3129C97.2518 81.1616 100.456 77.9472 100.456 73.9959V62.7802C100.456 58.8289 97.2518 55.6146 93.3129 55.6146H82.132Z" fill="#F2F2F2"/>
<path d="M82.132 87.1884C78.1931 87.1884 74.9887 90.4028 74.9887 94.354V105.57C74.9887 109.521 78.1931 112.735 82.132 112.735H93.3129C97.2518 112.735 100.456 109.521 100.456 105.57V94.354C100.456 90.4028 97.2518 87.1884 93.3129 87.1884H82.132Z" fill="#F2F2F2"/>
<path d="M82.132 118.762C78.1931 118.762 74.9887 121.977 74.9887 125.928V137.144C74.9887 141.095 78.1931 144.309 82.132 144.309H93.3129C97.2518 144.309 100.456 141.095 100.456 137.144V125.928C100.456 121.977 97.2518 118.762 93.3129 118.762H82.132Z" fill="#F2F2F2"/>
<path d="M89.5464 28.2506C84.5832 28.2506 80.5456 32.3008 80.5456 37.2795V51.4117C80.5456 56.3904 84.5832 60.4406 89.5464 60.4406H103.635C108.598 60.4406 112.635 56.3904 112.635 51.4117V37.2795C112.635 32.3008 108.598 28.2506 103.635 28.2506H89.5464Z" fill="black"/>
<path d="M135.928 67.7442C130.965 67.7442 126.928 71.7944 126.928 76.7731V90.9053C126.928 95.884 130.965 99.9342 135.928 99.9342H150.016C154.98 99.9342 159.017 95.884 159.017 90.9053V76.7731C159.017 71.7944 154.98 67.7442 150.016 67.7442H135.928Z" fill="black"/>
<path d="M115.764 209.99L112.902 209.966L111.635 198.634L115.859 198.67L115.764 209.99Z" fill="#A0616A"/>
<path d="M106.596 214.556C106.59 215.262 107.158 215.844 107.865 215.85L113.555 215.898L114.552 213.872L114.917 215.908L117.065 215.928L116.522 208.667L115.775 208.617L112.728 208.406L111.745 208.34L111.728 210.395L107.157 213.505C106.809 213.742 106.6 214.134 106.596 214.556Z" fill="#2F2E41"/>
<path d="M130.326 209.99L127.464 209.966L126.197 198.634L130.421 198.67L130.326 209.99Z" fill="#A0616A"/>
<path d="M121.158 214.556C121.152 215.262 121.72 215.844 122.427 215.85L128.117 215.898L129.113 213.872L129.479 215.908L131.626 215.928L131.084 208.667L130.337 208.617L127.29 208.406L126.307 208.34L126.29 210.395L121.719 213.505C121.371 213.742 121.162 214.134 121.158 214.556Z" fill="#2F2E41"/>
<path d="M104.533 118.372L116.134 118.739L127.125 121.189C127.125 121.189 126.026 122.537 129.689 126.212C129.689 126.212 134.574 134.787 131.155 143.117L129.689 176.436C129.689 176.436 133.962 199.925 130.697 207.4L126.383 207.671L119.082 176.707L115.523 143.362L113.814 176.191C113.814 176.191 120.354 198.725 116.224 207.671L111.551 207.4L103.556 176.191C103.556 176.191 100.137 140.177 100.625 133.317C101.114 126.457 104.533 118.372 104.533 118.372Z" fill="#2F2E41"/>
<path d="M143.492 65.721C141.906 66.1329 140.954 67.7565 141.364 69.3474C141.553 70.0763 141.996 70.6694 142.572 71.0611L142.572 71.0652L142.347 76.5316L146.517 78.4675L146.85 70.0556L146.821 70.0565C147.182 69.4103 147.307 68.6296 147.108 67.8556C146.697 66.2647 145.078 65.309 143.492 65.721Z" fill="#A0616A"/>
<path d="M120.185 85.2303C119.309 84.3592 118.801 83.1783 118.782 81.894C118.756 80.1713 119.617 78.6076 121.084 77.7114C122.774 76.6793 124.886 76.7837 126.467 77.9771L139.562 87.8675L141.895 73.6196L146.904 75.2373L145.709 93.7901C145.625 95.0878 144.894 96.2311 143.753 96.8482C142.612 97.4653 141.258 97.4499 140.131 96.8069L121.207 86.0065C120.827 85.7895 120.485 85.5279 120.185 85.2303Z" fill="#3F3D56"/>
<path d="M100.218 57.7514C101.055 59.164 100.592 60.9899 99.1838 61.8296C98.5385 62.2144 97.8074 62.3224 97.1234 62.1938L97.1206 62.1968L93.4437 66.2376L89.1236 64.6672L94.7912 58.4584L94.8112 58.4795C95.0079 57.7653 95.4671 57.1227 96.1523 56.7141C97.5605 55.8744 99.3806 56.3388 100.218 57.7514Z" fill="#A0616A"/>
<path d="M101.806 87.8962L80.7865 82.2006C79.535 81.8615 78.5628 80.9163 78.1855 79.6721C77.8083 78.4279 78.0915 77.0996 78.9429 76.1189L91.1156 62.0996L95.8085 64.4888L87.4654 76.2548L103.707 78.4796C105.666 78.7482 107.24 80.1661 107.715 82.0922C108.128 83.7648 107.642 85.483 106.414 86.6884C105.5 87.587 104.31 88.0667 103.076 88.0665C102.655 88.0665 102.228 88.0105 101.806 87.8962Z" fill="#3F3D56"/>
<path d="M131.773 123.274L102.38 124.626C101.572 123.396 101.791 121.547 102.922 119.232C107.19 110.489 103.948 93.9496 101.768 85.3375C101.156 82.9211 102.798 80.5189 105.271 80.2709L108.043 79.9929L110.604 72.1483H119.577L123.299 76.4139L129.616 80.2634C128.466 92.1438 123.567 108.92 130.546 117.333C132.073 119.173 132.505 121.163 131.773 123.274Z" fill="#3F3D56"/>
<path d="M113.949 72.3294C118.776 72.3294 122.688 68.4046 122.688 63.563C122.688 58.7215 118.776 54.7966 113.949 54.7966C109.123 54.7966 105.21 58.7215 105.21 63.563C105.21 68.4046 109.123 72.3294 113.949 72.3294Z" fill="#A0616A"/>
<path d="M123.838 57.9517C125.054 53.5049 111.802 49.6917 109.227 53.2727C108.869 52.7636 107.546 52.4543 106.939 52.6105C106.331 52.7667 105.821 53.1571 105.322 53.5351C104.637 54.0629 103.928 54.6095 103.507 55.3686C103.084 56.1244 103.018 57.1552 103.588 57.8111C104.04 58.3327 104.833 61.1046 105.512 61.2421C105.985 61.3389 106.384 61.417 106.726 61.4732C107.031 61.0265 107.809 60.4655 107.753 59.9251C108.214 60.2312 108.046 60.7697 107.953 61.3201C107.644 63.1529 100.673 77.3408 104.666 73.16C105.061 73.3942 105.55 73.6129 106.113 73.8128C107.069 72.3666 107.854 70.6612 108.371 68.8776L108.375 68.9106C108.553 70.4605 109.682 71.7323 111.176 72.1664C117.168 73.908 122.016 71.3525 123.683 66.7442C123.073 65.501 122.807 65.636 122.861 65.5991C123.624 65.0839 124.671 65.4208 124.998 66.2821C125.095 66.536 125.183 66.7528 125.259 66.916C126.127 63.7987 127.161 64.2486 123.838 57.9517Z" fill="#2F2E41"/>
<path d="M119.704 54.7254L119.092 51.5862C119.041 51.3223 118.992 51.0359 119.11 50.7948C119.263 50.485 119.655 50.3566 119.995 50.406C120.336 50.4553 120.591 50.7677 120.93 50.8278C122.11 51.037 123.668 49.8686 124.091 52.8243C124.267 54.0567 126.227 54.1868 126.882 55.2445C127.537 56.3021 127.617 57.8287 126.724 58.6928C126.01 59.3829 124.864 59.4625 123.937 59.11C123.01 58.7575 122.267 58.0455 121.617 57.2946C120.967 56.5437 120.379 55.7312 119.629 55.0804" fill="#2F2E41"/>
<path d="M124.305 59.5002C121.914 59.1651 120.284 58.2927 119.461 56.9074C118.383 55.0941 119.105 53.0974 119.136 53.0132L119.641 53.2017C119.635 53.2201 118.98 55.0478 119.927 56.6351C120.663 57.8698 122.161 58.6535 124.38 58.9645L124.305 59.5002Z" fill="black"/>
<path d="M135.527 25.58C128.497 25.58 122.777 19.842 122.777 12.79C122.777 5.73801 128.497 0 135.527 0C142.557 0 148.277 5.73801 148.277 12.79C148.277 19.842 142.557 25.58 135.527 25.58ZM135.527 5.116C131.308 5.116 127.877 8.5583 127.877 12.79C127.877 17.0217 131.308 20.464 135.527 20.464C139.745 20.464 143.177 17.0217 143.177 12.79C143.177 8.5583 139.745 5.116 135.527 5.116Z" fill="black"/>
<path d="M155.144 34.2719C154.519 34.2719 153.893 34.0433 153.401 33.5799L141.434 22.33C140.405 21.3645 140.353 19.7458 141.317 18.7153C142.278 17.6811 143.892 17.6299 144.92 18.5979L156.887 29.8479C157.916 30.8134 157.968 32.4321 157.004 33.4625C156.502 34.0009 155.824 34.2719 155.144 34.2719Z" fill="black"/>
<path d="M209.229 209.703C210.096 209.758 210.575 208.677 209.919 208.047L209.854 207.787C209.863 207.766 209.871 207.745 209.88 207.725C210.757 205.627 213.728 205.642 214.598 207.742C215.369 209.606 216.352 211.474 216.593 213.445C216.702 214.315 216.653 215.201 216.461 216.055C218.269 212.093 219.22 207.767 219.22 203.417C219.22 202.324 219.16 201.231 219.038 200.14C218.938 199.248 218.8 198.362 218.621 197.484C217.653 192.736 215.558 188.214 212.536 184.438C211.083 183.641 209.871 182.396 209.139 180.903C208.876 180.364 208.67 179.785 208.573 179.195C208.738 179.217 209.196 176.691 209.072 176.536C209.302 176.185 209.714 176.011 209.966 175.669C211.218 173.966 212.942 174.264 213.842 176.577C215.765 177.55 215.784 179.165 214.604 180.718C213.853 181.706 213.75 183.043 213.091 184.1C213.159 184.187 213.23 184.272 213.297 184.359C214.54 185.958 215.615 187.676 216.521 189.482C216.265 187.475 216.643 185.058 217.287 183.5C218.021 181.724 219.396 180.229 220.607 178.694C222.062 176.85 225.045 177.655 225.301 179.992C225.303 180.015 225.306 180.037 225.308 180.06C225.128 180.162 224.952 180.27 224.78 180.384C223.798 181.035 224.137 182.562 225.301 182.742L225.327 182.746C225.262 183.396 225.151 184.041 224.988 184.674C226.542 190.701 223.188 192.896 218.399 192.995C218.293 193.049 218.19 193.103 218.084 193.155C218.57 194.525 218.957 195.931 219.244 197.356C219.502 198.615 219.681 199.887 219.781 201.165C219.906 202.778 219.895 204.398 219.759 206.008L219.768 205.951C220.112 204.178 221.071 202.522 222.465 201.375C224.54 199.664 227.473 199.035 229.712 197.66C230.79 196.998 232.171 197.853 231.983 199.107L231.974 199.167C231.64 199.303 231.315 199.461 231 199.637C230.821 199.739 230.644 199.847 230.472 199.961C229.49 200.613 229.83 202.139 230.993 202.32L231.019 202.324C231.038 202.326 231.055 202.329 231.074 202.332C230.502 203.694 229.705 204.958 228.707 206.049C227.736 211.31 223.564 211.809 219.101 210.277H219.098C218.61 212.409 217.897 214.492 216.981 216.477H209.418C209.391 216.392 209.367 216.305 209.343 216.221C210.042 216.264 210.747 216.224 211.435 216.096C210.874 215.405 210.313 214.709 209.752 214.018C209.738 214.005 209.727 213.991 209.717 213.978C209.432 213.624 209.145 213.273 208.86 212.92L208.86 212.92C208.842 211.834 208.972 210.753 209.229 209.703Z" fill="#F2F2F2"/>
<path d="M0 216.499C0 216.777 0.22244 217 0.499437 217H231.442C231.719 217 231.941 216.777 231.941 216.499C231.941 216.221 231.719 215.998 231.442 215.998H0.499437C0.22244 215.998 0 216.221 0 216.499Z" fill="#CCCCCC"/>
</g>
<defs>
<clipPath id="clip0_113_1487">
<rect width="232" height="217" fill="white"/>
</clipPath>
</defs>
</svg>
